<svg width="51" height="46" viewBox="0 0 51 46" fill="none" xmlns="http://www.w3.org/2000/svg">
<path d="M5.72266 22.0756C5.9154 18.0272 7.1999 14.0817 9.47181 10.6712C12.4187 6.2475 16.8367 3.00994 21.9427 1.53234C27.0486 0.0547271 32.5128 0.432524 37.3668 2.59876C42.2209 4.76499 46.1512 8.57977 48.4613 13.367C50.7714 18.1543 51.312 23.6047 49.9875 28.7525C48.6628 33.9003 45.5584 38.4127 41.2246 41.4904C36.8907 44.5681 31.6073 46.012 26.3106 45.5662C22.2271 45.2226 18.3392 43.773 15.0501 41.4049L17.6464 38.8084C20.301 40.5967 23.3846 41.6925 26.6137 41.9641C31.0594 42.3382 35.4941 41.1262 39.1317 38.5432C42.7692 35.96 45.3748 32.1723 46.4865 27.8516C47.5985 23.5309 47.1446 18.956 45.2057 14.938C43.2668 10.9199 39.9679 7.71799 35.8937 5.89978C31.8195 4.08157 27.2331 3.76448 22.9474 5.00468C18.6619 6.2449 14.9537 8.96233 12.4802 12.6754C10.6836 15.3723 9.6227 18.4678 9.37068 21.6588L5.72266 22.0756Z" fill="#0B315E"/>
<path d="M10.0856 32.8387C9.27203 34.2828 7.23103 34.3859 6.27628 33.0309L0.812622 25.2775C-0.210822 23.8252 0.768481 21.8147 2.54294 21.7252L12.6623 21.2148C14.4368 21.1252 15.6134 23.027 14.7413 24.5749L10.0856 32.8387ZM23.5443 10.3896H26.1302V26.8582H23.5443V10.3896Z" fill="#0B315E"/>
<path d="M23.5439 26.8585L24.964 24.6973L38.7269 33.741L37.3068 35.9022L23.5439 26.8585Z" fill="#0B315E"/>
</svg>
