<svg width="42" height="42" viewBox="0 0 42 42" fill="none" xmlns="http://www.w3.org/2000/svg">
<path d="M12.6717 17.1408L9.82813 19.9844L18.9688 29.125L39.2812 8.8125L36.4377 5.96895L18.9688 23.3357L12.6717 17.1408ZM37.25 21C37.25 29.9373 29.9372 37.25 21 37.25C12.0628 37.25 4.75 29.9373 4.75 21C4.75 12.0627 12.0627 4.75 21 4.75C22.5234 4.75 24.0469 4.95332 25.4691 5.35947L28.6172 2.21094C26.2814 1.19531 23.7424 0.6875 21 0.6875C9.82812 0.6875 0.6875 9.82812 0.6875 21C0.6875 32.1719 9.82812 41.3125 21 41.3125C32.1719 41.3125 41.3125 32.1719 41.3125 21H37.25Z" fill="#0B315E"/>
</svg>
