<svg width="50" height="50" viewBox="0 0 50 50" fill="none" xmlns="http://www.w3.org/2000/svg">
<path d="M19.0833 22.6462C18.875 22.6253 18.625 22.6253 18.3958 22.6462C13.4375 22.4795 9.5 18.417 9.5 13.417C9.5 8.31283 13.625 4.16699 18.75 4.16699C23.8542 4.16699 28 8.31283 28 13.417C27.9792 18.417 24.0417 22.4795 19.0833 22.6462Z" stroke="#0B315E" stroke-width="2.8" stroke-linecap="round" stroke-linejoin="round"/>
<path d="M34.1868 8.33301C38.2285 8.33301 41.4785 11.6038 41.4785 15.6247C41.4785 19.5622 38.3535 22.7705 34.4577 22.9163C34.291 22.8955 34.1035 22.8955 33.916 22.9163" stroke="#0B315E" stroke-width="2.8" stroke-linecap="round" stroke-linejoin="round"/>
<path d="M8.66699 30.333C3.62533 33.708 3.62533 39.208 8.66699 42.5622C14.3962 46.3955 23.792 46.3955 29.5212 42.5622C34.5628 39.1872 34.5628 33.6872 29.5212 30.333C23.8128 26.5205 14.417 26.5205 8.66699 30.333Z" stroke="#0B315E" stroke-width="2.8" stroke-linecap="round" stroke-linejoin="round"/>
<path d="M38.208 41.667C39.708 41.3545 41.1247 40.7503 42.2913 39.8545C45.5413 37.417 45.5413 33.3962 42.2913 30.9587C41.1455 30.0837 39.7497 29.5003 38.2705 29.167" stroke="#0B315E" stroke-width="2.8" stroke-linecap="round" stroke-linejoin="round"/>
</svg>
