<svg width="43" height="45" viewBox="0 0 43 45" fill="none" xmlns="http://www.w3.org/2000/svg">
<path d="M38.5908 4.53601H3.83142C2.82675 4.53881 1.86402 4.93916 1.15361 5.64958C0.443189 6.36 0.0428404 7.32272 0.0400391 8.3274V29.3195C0.0400391 30.3251 0.439487 31.2894 1.15051 32.0005C1.86153 32.7115 2.82589 33.1109 3.83142 33.1109H9.9128C10.1139 33.1109 10.3068 33.031 10.449 32.8888C10.5912 32.7466 10.6711 32.5538 10.6711 32.3526C10.6711 32.1515 10.5912 31.9587 10.449 31.8165C10.3068 31.6743 10.1139 31.5944 9.9128 31.5944H3.83142C3.2281 31.5944 2.64949 31.3547 2.22288 30.9281C1.79626 30.5015 1.55659 29.9229 1.55659 29.3195V16.7473H41.6239C41.8251 16.7473 42.0179 16.6674 42.1601 16.5252C42.3023 16.383 42.3822 16.1901 42.3822 15.989V8.33043C42.3802 7.32523 41.9802 6.36173 41.2697 5.65065C40.5592 4.93958 39.596 4.53882 38.5908 4.53601ZM3.83142 6.05257H38.5908C39.1942 6.05257 39.7728 6.29224 40.1994 6.71885C40.626 7.14546 40.8657 7.72408 40.8657 8.3274V10.4506H1.55659V8.3274C1.55659 7.72408 1.79626 7.14546 2.22288 6.71885C2.64949 6.29224 3.2281 6.05257 3.83142 6.05257ZM41.6239 18.9433C41.4228 18.9433 41.23 19.0232 41.0878 19.1654C40.9456 19.3076 40.8657 19.5004 40.8657 19.7016V29.3195C40.8657 29.9229 40.626 30.5015 40.1994 30.9281C39.7728 31.3547 39.1942 31.5944 38.5908 31.5944H28.7484C27.639 29.7752 25.9084 28.4194 23.8765 27.7777C21.8447 27.1361 19.6492 27.2521 17.6963 28.1042C15.7434 28.9563 14.1651 30.4868 13.2536 32.4127C12.342 34.3386 12.1588 36.5295 12.7378 38.5801C13.3169 40.6306 14.619 42.402 16.4033 43.5666C18.1876 44.7312 20.3333 45.2102 22.4435 44.9149C24.5537 44.6196 26.4855 43.5701 27.8816 41.9604C29.2777 40.3507 30.0435 38.2899 30.0375 36.1592C30.039 35.1173 29.8488 34.084 29.4764 33.1109H38.5908C39.5964 33.1109 40.5607 32.7115 41.2718 32.0005C41.9828 31.2894 42.3822 30.3251 42.3822 29.3195V19.7046C42.3826 19.6048 42.3633 19.5058 42.3254 19.4135C42.2875 19.3211 42.2317 19.2372 42.1612 19.1664C42.0908 19.0957 42.007 19.0396 41.9148 19.0013C41.8226 18.963 41.7238 18.9433 41.6239 18.9433ZM25.0328 34.2453L19.9069 39.5532C19.7618 39.6977 19.5657 39.7794 19.3609 39.7807C19.3249 39.7832 19.2887 39.778 19.2548 39.7656C19.1362 39.7506 19.023 39.7069 18.9252 39.6381C18.8274 39.5694 18.7479 39.4778 18.6937 39.3713L17.2529 36.6263C17.1627 36.4449 17.1471 36.2354 17.2095 36.0426C17.2718 35.8499 17.4072 35.6892 17.5866 35.595C17.7638 35.504 17.9698 35.4863 18.1599 35.5459C18.3501 35.6055 18.5091 35.7376 18.6027 35.9135L19.5429 37.7334L23.9409 33.1837C24.084 33.0432 24.2757 32.9631 24.4763 32.9603C24.6768 32.9575 24.8707 33.0321 25.0177 33.1686C25.0898 33.238 25.1474 33.3211 25.1872 33.413C25.227 33.5048 25.2482 33.6037 25.2496 33.7038C25.251 33.8039 25.2326 33.9033 25.1954 33.9962C25.1582 34.0892 25.1029 34.1738 25.0328 34.2453ZM31.8088 25.1793C31.6077 25.1793 31.4148 25.0995 31.2726 24.9573C31.1304 24.815 31.0505 24.6222 31.0505 24.4211C31.0505 24.22 31.1304 24.0271 31.2726 23.8849C31.4148 23.7427 31.6077 23.6628 31.8088 23.6628H37.0819C37.283 23.6628 37.4758 23.7427 37.618 23.8849C37.7603 24.0271 37.8401 24.22 37.8401 24.4211C37.8401 24.6222 37.7603 24.815 37.618 24.9573C37.4758 25.0995 37.283 25.1793 37.0819 25.1793H31.8088ZM5.65736 41.9069V43.3568C5.65736 43.5579 5.57747 43.7507 5.43526 43.8929C5.29306 44.0352 5.10019 44.115 4.89908 44.115C4.69797 44.115 4.5051 44.0352 4.3629 43.8929C4.22069 43.7507 4.1408 43.5579 4.1408 43.3568V41.9069C4.1408 41.7058 4.22069 41.513 4.3629 41.3708C4.5051 41.2285 4.69797 41.1487 4.89908 41.1487C5.10019 41.1487 5.29306 41.2285 5.43526 41.3708C5.57747 41.513 5.65736 41.7058 5.65736 41.9069ZM5.65736 36.8356V38.2854C5.65736 38.4865 5.57747 38.6794 5.43526 38.8216C5.29306 38.9638 5.10019 39.0437 4.89908 39.0437C4.69797 39.0437 4.5051 38.9638 4.3629 38.8216C4.22069 38.6794 4.1408 38.4865 4.1408 38.2854V36.8356C4.1408 36.6345 4.22069 36.4416 4.3629 36.2994C4.5051 36.1572 4.69797 36.0773 4.89908 36.0773C5.10019 36.0773 5.29306 36.1572 5.43526 36.2994C5.57747 36.4416 5.65736 36.6345 5.65736 36.8356ZM3.86176 40.0871C3.86176 40.2882 3.78187 40.481 3.63966 40.6233C3.49746 40.7655 3.30459 40.8453 3.10348 40.8453H2.63183C2.43072 40.8453 2.23785 40.7655 2.09565 40.6233C1.95344 40.481 1.87355 40.2882 1.87355 40.0871C1.87355 39.886 1.95344 39.6931 2.09565 39.5509C2.23785 39.4087 2.43072 39.3288 2.63183 39.3288H3.10348C3.30459 39.3288 3.49746 39.4087 3.63966 39.5509C3.78187 39.6931 3.86176 39.886 3.86176 40.0871ZM7.93977 40.0871C7.93977 40.2882 7.85988 40.481 7.71767 40.6233C7.57547 40.7655 7.3826 40.8453 7.18149 40.8453H6.70984C6.50874 40.8453 6.31587 40.7655 6.17366 40.6233C6.03146 40.481 5.95157 40.2882 5.95157 40.0871C5.95157 39.886 6.03146 39.6931 6.17366 39.5509C6.31587 39.4087 6.50874 39.3288 6.70984 39.3288H7.18149C7.3826 39.3288 7.57547 39.4087 7.71767 39.5509C7.85988 39.6931 7.93977 39.886 7.93977 40.0871ZM27.2 0.758277C27.2 0.608304 27.2445 0.461699 27.3278 0.337001C27.4111 0.212303 27.5295 0.115113 27.6681 0.0577207C27.8067 0.000328545 27.9591 -0.0146879 28.1062 0.0145704C28.2533 0.0438287 28.3884 0.116049 28.4945 0.222095C28.6005 0.328142 28.6727 0.463254 28.702 0.610346C28.7312 0.757437 28.7162 0.909901 28.6588 1.04846C28.6014 1.18702 28.5043 1.30544 28.3796 1.38876C28.2549 1.47208 28.1083 1.51655 27.9583 1.51655C27.8581 1.51656 27.7588 1.4967 27.6663 1.45812C27.5738 1.41954 27.4899 1.363 27.4194 1.29179C27.3489 1.22057 27.2932 1.13608 27.2555 1.0432C27.2179 0.950329 27.199 0.850909 27.2 0.750694V0.758277ZM31.7497 0.758277C31.7497 0.608304 31.7941 0.461699 31.8775 0.337001C31.9608 0.212303 32.0792 0.115113 32.2178 0.0577207C32.3563 0.000328545 32.5088 -0.0146879 32.6559 0.0145704C32.803 0.0438287 32.9381 0.116049 33.0441 0.222095C33.1502 0.328142 33.2224 0.463254 33.2516 0.610346C33.2809 0.757437 33.2659 0.909901 33.2085 1.04846C33.1511 1.18702 33.0539 1.30544 32.9292 1.38876C32.8045 1.47208 32.6579 1.51655 32.5079 1.51655C32.4077 1.51656 32.3085 1.4967 32.216 1.45812C32.1235 1.41954 32.0396 1.363 31.9691 1.29179C31.8986 1.22057 31.8428 1.13608 31.8052 1.0432C31.7675 0.950329 31.7487 0.850909 31.7497 0.750694V0.758277ZM36.2993 0.758277C36.2993 0.608304 36.3438 0.461699 36.4271 0.337001C36.5104 0.212303 36.6289 0.115113 36.7674 0.0577207C36.906 0.000328545 37.0584 -0.0146879 37.2055 0.0145704C37.3526 0.0438287 37.4877 0.116049 37.5938 0.222095C37.6998 0.328142 37.7721 0.463254 37.8013 0.610346C37.8306 0.757437 37.8156 0.909901 37.7582 1.04846C37.7008 1.18702 37.6036 1.30544 37.4789 1.38876C37.3542 1.47208 37.2076 1.51655 37.0576 1.51655C36.9574 1.51656 36.8582 1.4967 36.7657 1.45812C36.6732 1.41954 36.5892 1.363 36.5187 1.29179C36.4482 1.22057 36.3925 1.13608 36.3549 1.0432C36.3172 0.950329 36.2983 0.850909 36.2993 0.750694V0.758277Z" fill="#0B315E"/>
</svg>
