<svg width="47" height="47" viewBox="0 0 47 47" fill="none" xmlns="http://www.w3.org/2000/svg">
<path d="M21.8731 32.0018C22.1936 32.325 22.6031 32.5454 23.0494 32.6349C23.4957 32.7244 23.9586 32.679 24.379 32.5045C24.7994 32.3299 25.1583 32.0341 25.4099 31.6548C25.6615 31.2755 25.7945 30.8299 25.7918 30.3747C25.7834 29.7679 25.546 29.1868 25.1272 28.7476C24.805 28.4296 24.3958 28.2142 23.9512 28.1285C23.5066 28.0429 23.0467 28.0908 22.6293 28.2663C22.348 28.3754 22.091 28.539 21.8731 28.7476C21.4543 29.1868 21.2169 29.7679 21.2085 30.3747C21.2068 30.6763 21.2646 30.9753 21.3786 31.2545C21.4926 31.5337 21.6607 31.7876 21.8731 32.0018ZM41.6272 31.5434H31.246C30.6382 31.5434 30.0553 31.7849 29.6255 32.2146C29.1958 32.6444 28.9543 33.2273 28.9543 33.8351C28.9543 34.4429 29.1958 35.0258 29.6255 35.4555C30.0553 35.8853 30.6382 36.1268 31.246 36.1268H36.746C34.2182 38.7684 30.9582 40.5939 27.3849 41.3687C23.8117 42.1435 20.0884 41.8321 16.6934 40.4746C13.2985 39.1171 10.3869 36.7755 8.33298 33.7507C6.279 30.7259 5.1764 27.156 5.16683 23.4997C5.16683 22.8919 4.92539 22.309 4.49562 21.8792C4.06585 21.4495 3.48295 21.208 2.87516 21.208C2.26737 21.208 1.68448 21.4495 1.25471 21.8792C0.824939 22.309 0.583496 22.8919 0.583496 23.4997C0.595611 27.9748 1.91775 32.3485 4.38675 36.081C6.85576 39.8135 10.3636 42.7413 14.4773 44.5033C18.591 46.2653 23.1306 46.7842 27.5358 45.9961C31.9411 45.208 36.0192 43.1474 39.2668 40.0684V44.1247C39.2668 44.7325 39.5083 45.3154 39.938 45.7451C40.3678 46.1749 40.9507 46.4163 41.5585 46.4163C42.1663 46.4163 42.7492 46.1749 43.179 45.7451C43.6087 45.3154 43.8502 44.7325 43.8502 44.1247V33.8122C43.8445 33.2201 43.6099 32.6532 43.1955 32.2302C42.7811 31.8073 42.2191 31.5612 41.6272 31.5434ZM23.5002 0.583008C17.6252 0.599765 11.9811 2.87219 7.7335 6.93092V2.87467C7.7335 2.26689 7.49205 1.68399 7.06228 1.25422C6.63251 0.82445 6.04962 0.583008 5.44183 0.583008C4.83404 0.583008 4.25115 0.82445 3.82138 1.25422C3.39161 1.68399 3.15016 2.26689 3.15016 2.87467V13.1872C3.15016 13.795 3.39161 14.3779 3.82138 14.8076C4.25115 15.2374 4.83404 15.4788 5.44183 15.4788H15.7543C16.3621 15.4788 16.945 15.2374 17.3748 14.8076C17.8046 14.3779 18.046 13.795 18.046 13.1872C18.046 12.5794 17.8046 11.9965 17.3748 11.5667C16.945 11.137 16.3621 10.8955 15.7543 10.8955H10.2543C12.7808 8.25521 16.0387 6.4302 19.6098 5.65471C23.181 4.87923 26.9023 5.18867 30.2963 6.54332C33.6903 7.89796 36.6021 10.236 38.6578 13.2573C40.7135 16.2786 41.8194 19.8454 41.8335 23.4997C41.8335 24.1075 42.0749 24.6904 42.5047 25.1201C42.9345 25.5499 43.5174 25.7913 44.1252 25.7913C44.733 25.7913 45.3158 25.5499 45.7456 25.1201C46.1754 24.6904 46.4168 24.1075 46.4168 23.4997C46.4168 20.4902 45.8241 17.5102 44.6724 14.7298C43.5207 11.9495 41.8327 9.42315 39.7047 7.29514C37.5767 5.16714 35.0504 3.47911 32.27 2.32744C29.4896 1.17577 26.5096 0.583008 23.5002 0.583008ZM23.5002 25.7913C24.108 25.7913 24.6908 25.5499 25.1206 25.1201C25.5504 24.6904 25.7918 24.1075 25.7918 23.4997V16.6247C25.7918 16.0169 25.5504 15.434 25.1206 15.0042C24.6908 14.5745 24.108 14.333 23.5002 14.333C22.8924 14.333 22.3095 14.5745 21.8797 15.0042C21.4499 15.434 21.2085 16.0169 21.2085 16.6247V23.4997C21.2085 24.1075 21.4499 24.6904 21.8797 25.1201C22.3095 25.5499 22.8924 25.7913 23.5002 25.7913Z" fill="#0B315E"/>
</svg>
