<svg width="26" height="26" viewBox="0 0 26 26" fill="none" xmlns="http://www.w3.org/2000/svg">
<path opacity="0.4" d="M18.4166 22.2084H7.58329C4.33329 22.2084 2.16663 20.5834 2.16663 16.7917V9.20841C2.16663 5.41675 4.33329 3.79175 7.58329 3.79175H18.4166C21.6666 3.79175 23.8333 5.41675 23.8333 9.20841V16.7917C23.8333 20.5834 21.6666 22.2084 18.4166 22.2084Z" fill="#0B315E"/>
<path d="M13.0002 13.9425C12.0902 13.9425 11.1693 13.6608 10.4652 13.0866L7.07433 10.3783C6.72766 10.0966 6.66267 9.58747 6.94434 9.2408C7.226 8.89413 7.73517 8.82914 8.08184 9.1108L11.4727 11.8191C12.296 12.48 13.6935 12.48 14.5168 11.8191L17.9077 9.1108C18.2543 8.82914 18.7743 8.8833 19.0452 9.2408C19.3268 9.58747 19.2727 10.1075 18.9152 10.3783L15.5243 13.0866C14.831 13.6608 13.9102 13.9425 13.0002 13.9425Z" fill="#0B315E"/>
</svg>
