<svg width="20" height="22" viewBox="0 0 20 22" fill="none" xmlns="http://www.w3.org/2000/svg">
<path fill-rule="evenodd" clip-rule="evenodd" d="M5.41616 7.44019H14.5838C17.1377 7.44019 19.2083 9.46516 19.2083 11.9627V17.311C19.2083 19.8086 17.1377 21.8335 14.5838 21.8335H5.41616C2.86226 21.8335 0.791626 19.8086 0.791626 17.311V11.9627C0.791626 9.46516 2.86226 7.44019 5.41616 7.44019ZM9.99446 16.7738C10.5339 16.7738 10.9632 16.3539 10.9632 15.8264V13.4365C10.9632 12.9198 10.5339 12.4999 9.99446 12.4999C9.46606 12.4999 9.03675 12.9198 9.03675 13.4365V15.8264C9.03675 16.3539 9.46606 16.7738 9.99446 16.7738Z" fill="#0B315E"/>
<path opacity="0.4" d="M15.983 6.01236V7.60564C15.5977 7.49799 15.1904 7.44416 14.7721 7.44416H14.0565V6.01236C14.0565 3.82699 12.2402 2.05069 10.0055 2.05069C7.77088 2.05069 5.95453 3.81622 5.94352 5.99083V7.44416H5.239C4.80968 7.44416 4.40238 7.49799 4.01709 7.61641V6.01236C4.0281 2.78274 6.70308 0.166748 9.98352 0.166748C13.308 0.166748 15.983 2.78274 15.983 6.01236" fill="#0B315E"/>
</svg>
