<svg width="50" height="50" viewBox="0 0 50 50" fill="none" xmlns="http://www.w3.org/2000/svg">
<path d="M19.0833 22.6458C18.875 22.625 18.625 22.625 18.3958 22.6458C13.4375 22.4792 9.5 18.4167 9.5 13.4167C9.5 8.3125 13.625 4.16667 18.75 4.16667C23.8542 4.16667 28 8.3125 28 13.4167C27.9792 18.4167 24.0417 22.4792 19.0833 22.6458Z" stroke="#0B315E" stroke-width="4" stroke-linecap="round" stroke-linejoin="round"/>
<path d="M34.1868 8.33333C38.2285 8.33333 41.4785 11.6042 41.4785 15.625C41.4785 19.5625 38.3535 22.7708 34.4577 22.9167C34.291 22.8958 34.1035 22.8958 33.916 22.9167" stroke="#0B315E" stroke-width="4" stroke-linecap="round" stroke-linejoin="round"/>
<path d="M8.66699 30.3333C3.62533 33.7083 3.62533 39.2083 8.66699 42.5625C14.3962 46.3958 23.792 46.3958 29.5212 42.5625C34.5628 39.1875 34.5628 33.6875 29.5212 30.3333C23.8128 26.5208 14.417 26.5208 8.66699 30.3333Z" stroke="#0B315E" stroke-width="4" stroke-linecap="round" stroke-linejoin="round"/>
<path d="M38.208 41.6667C39.708 41.3542 41.1247 40.75 42.2913 39.8542C45.5413 37.4167 45.5413 33.3958 42.2913 30.9583C41.1455 30.0833 39.7497 29.5 38.2705 29.1667" stroke="#0B315E" stroke-width="4" stroke-linecap="round" stroke-linejoin="round"/>
</svg>
