<svg width="10" height="17" viewBox="0 0 10 17" fill="none" xmlns="http://www.w3.org/2000/svg">
<path d="M0.51166 16.5365C-0.144602 15.8971 -0.19602 15.0076 0.51166 14.2263L6.02176 8.49845L0.51166 2.77073C-0.19602 1.98931 -0.144602 1.09814 0.51166 0.464153C0.834649 0.165779 1.2588 0 1.69921 0C2.13961 0 2.56377 0.165779 2.88676 0.464153C3.50166 1.05951 9.50728 7.34524 9.50728 7.34524C9.6631 7.4948 9.78704 7.67414 9.87171 7.87254C9.95637 8.07093 10 8.28431 10 8.4999C10 8.7155 9.95637 8.92888 9.87171 9.12727C9.78704 9.32567 9.6631 9.50501 9.50728 9.65457C9.50728 9.65457 3.50166 15.9374 2.88676 16.5355C2.56387 16.8341 2.13968 17 1.69921 17C1.25874 17 0.834543 16.8341 0.51166 16.5355V16.5365Z" fill="#0B315E"/>
</svg>
