<svg width="10" height="17" viewBox="0 0 10 17" fill="none" xmlns="http://www.w3.org/2000/svg">
<path d="M9.48834 0.463536C10.1446 1.10286 10.196 1.99242 9.48834 2.77367L3.97824 8.50155L9.48834 14.2293C10.196 15.0107 10.1446 15.9019 9.48834 16.5358C9.16535 16.8342 8.7412 17 8.30079 17C7.86039 17 7.43623 16.8342 7.11324 16.5358C6.49834 15.9405 0.492719 9.65476 0.492719 9.65476C0.336903 9.5052 0.212955 9.32586 0.128295 9.12746C0.0436344 8.92907 0 8.71569 0 8.5001C0 8.2845 0.0436344 8.07112 0.128295 7.87273C0.212955 7.67433 0.336903 7.49499 0.492719 7.34543C0.492719 7.34543 6.49834 1.06261 7.11324 0.464506C7.43613 0.165922 7.86032 0 8.30079 0C8.74126 0 9.16546 0.165922 9.48834 0.464506V0.463536Z" fill="#0B315E"/>
</svg>
