<svg width="26" height="20" viewBox="0 0 26 20" fill="none" xmlns="http://www.w3.org/2000/svg">
<path d="M25.236 4.99526C25.67 5.12226 25.978 5.50726 26 5.96726V17.9673C25.976 18.4593 25.62 18.8193 25.123 18.9783C21.173 20.2513 16.86 20.2503 12.925 18.9943C10.939 18.3603 8.861 17.9683 6.775 17.9943C4.923 18.0173 3.071 18.3333 1.316 18.9153C1.316 18.9153 0.972 19.0183 0.666 18.9093C0.279 18.7723 0.02 18.3813 0 17.9673V1.96726C0.024 1.47426 0.38 1.11526 0.877 0.955262C4.819 -0.314738 9.14 -0.316738 13.075 0.939262C13.932 1.21326 14.8 1.46626 15.686 1.63226C18.667 2.19226 21.802 1.97526 24.684 1.01826L24.869 0.975262C24.953 0.968262 24.974 0.963262 25.059 0.968262C25.935 1.02026 26.475 2.53226 25.268 2.93126C25.236 2.94226 25.204 2.95226 25.171 2.96326C21.199 4.25426 16.854 4.24926 12.925 2.99426C11.093 2.40926 9.19 2.02426 7.27 1.99526C5.497 1.96826 3.722 2.20726 2.012 2.69926L2 16.6293C5.663 15.6853 9.51 15.8013 13.075 16.9393C16.595 18.0633 20.418 18.2613 23.988 17.2343L24 5.96726C24 5.96726 24.262 4.80726 25.236 4.99526ZM21.05 13.9903C21.767 14.0403 22.256 14.9593 21.81 15.5753C21.54 15.9473 21.032 15.9983 20.511 16.0403C19.331 16.1353 18.131 16.1123 16.961 15.9903C16.308 15.9223 15.822 15.2013 16.08 14.5963C16.269 14.1533 16.778 13.9623 17.289 14.0133C18.487 14.1283 19.693 14.1263 20.891 13.9953C20.891 13.9953 20.942 13.9873 21.05 13.9903ZM13.026 5.98426C14.863 6.00126 16.579 7.41926 16.916 9.23826C17.375 11.7133 15.063 14.4003 12.272 13.8833C10.656 13.5833 9.299 12.1813 9.059 10.5473C8.735 8.33626 10.547 6.03726 12.923 5.98426C12.957 5.98426 12.991 5.98426 13.026 5.98426ZM12.987 7.98426C11.687 7.99626 10.608 9.53326 11.202 10.8033C11.626 11.7113 12.81 12.1873 13.749 11.8033C14.765 11.3883 15.283 10.0433 14.755 9.04426C14.427 8.42126 13.754 8.00026 13.039 7.98426C13.022 7.98426 13.004 7.98426 12.987 7.98426ZM7.066 3.98926C7.726 3.99226 8.387 4.02826 9.043 4.09926C9.262 4.12326 9.932 4.42826 9.994 4.99126C10.057 5.56426 9.532 6.13926 8.931 6.09826C7.692 6.01226 6.39 5.95926 5.105 6.09526C5.105 6.09526 4.592 6.09826 4.304 5.81826C3.785 5.31526 4.036 4.23026 4.856 4.11126C5.561 4.00826 6.323 3.98826 7.066 3.98926Z" fill="#0B315E"/>
</svg>
