<svg width="16" height="9" viewBox="0 0 16 9" fill="none" xmlns="http://www.w3.org/2000/svg">
<path d="M0.909003 0.451464C1.47311 -0.12759 2.25801 -0.172959 2.94735 0.451464L8.00137 5.31332L13.0552 0.451464C13.7447 -0.172959 14.5311 -0.12759 15.0905 0.451464C15.3537 0.736455 15.5 1.11071 15.5 1.4993C15.5 1.88789 15.3537 2.26215 15.0905 2.54714C14.5651 3.0897 9.0189 8.38878 9.0189 8.38878C8.88694 8.52626 8.7287 8.63563 8.55365 8.71033C8.37859 8.78503 8.19031 8.82353 8.00008 8.82353C7.80985 8.82353 7.62158 8.78503 7.44652 8.71033C7.27147 8.63563 7.11322 8.52626 6.98127 8.38878C6.98127 8.38878 1.4376 3.0897 0.909858 2.54714C0.646402 2.26224 0.5 1.88795 0.5 1.4993C0.5 1.11065 0.646402 0.736362 0.909858 0.451464H0.909003Z" fill="#0B315E"/>
</svg>
